<svg width="32" height="32" viewBox="0 0 32 32" fill="none" xmlns="http://www.w3.org/2000/svg">
<path d="M16 32C24.8366 32 32 24.8366 32 16C32 7.16344 24.8366 0 16 0C7.16344 0 0 7.16344 0 16C0 24.8366 7.16344 32 16 32Z" fill="#7D2AE7"/>
<path d="M16 32C24.8366 32 32 24.8366 32 16C32 7.16344 24.8366 0 16 0C7.16344 0 0 7.16344 0 16C0 24.8366 7.16344 32 16 32Z" fill="url(#paint0_radial_45_121)"/>
<path d="M16 32C24.8366 32 32 24.8366 32 16C32 7.16344 24.8366 0 16 0C7.16344 0 0 7.16344 0 16C0 24.8366 7.16344 32 16 32Z" fill="url(#paint1_radial_45_121)"/>
<path d="M16 32C24.8366 32 32 24.8366 32 16C32 7.16344 24.8366 0 16 0C7.16344 0 0 7.16344 0 16C0 24.8366 7.16344 32 16 32Z" fill="url(#paint2_radial_45_121)"/>
<path d="M16 32C24.8366 32 32 24.8366 32 16C32 7.16344 24.8366 0 16 0C7.16344 0 0 7.16344 0 16C0 24.8366 7.16344 32 16 32Z" fill="url(#paint3_radial_45_121)"/>
<path d="M28.1612 17.4513C28.1193 17.4513 28.0811 17.4784 28.0614 17.5352C27.8085 18.2567 27.4669 18.6858 27.1857 18.6858C27.0242 18.6858 26.9588 18.5058 26.9588 18.2234C26.9588 17.5168 27.3818 16.0183 27.5952 15.3351C27.6199 15.2524 27.6359 15.1784 27.6359 15.1155C27.6359 14.9169 27.5273 14.8195 27.2585 14.8195C26.9686 14.8195 26.6567 14.933 26.3533 15.4645C26.2484 14.9959 25.9315 14.7911 25.4887 14.7911C24.9769 14.7911 24.4824 15.1204 24.0754 15.6545C23.6684 16.1884 23.1899 16.3636 22.8298 16.2773C23.0887 15.6433 23.1849 15.1697 23.1849 14.8183C23.1849 14.267 22.9124 13.934 22.4721 13.934C21.8024 13.934 21.4164 14.5728 21.4164 15.245C21.4164 15.7642 21.652 16.2982 22.17 16.5572C21.7359 17.5389 21.102 18.4269 20.8615 18.4269C20.5507 18.4269 20.4594 16.9062 20.4766 15.8184C20.4877 15.1944 20.5395 15.1623 20.5395 14.9737C20.5395 14.8651 20.4693 14.7911 20.1869 14.7911C19.5282 14.7911 19.3248 15.3486 19.2939 15.9887C19.284 16.2319 19.2459 16.4732 19.1805 16.7077C18.9054 17.6894 18.3381 18.4343 17.9682 18.4343C17.7967 18.4343 17.7499 18.2628 17.7499 18.0384C17.7499 17.3317 18.1457 16.4487 18.1457 15.6951C18.1457 15.1414 17.9028 14.7912 17.4453 14.7912C16.9063 14.7912 16.1935 15.4325 15.5189 16.6337C15.7408 15.7137 15.8322 14.8232 15.1748 14.8232C15.0321 14.8253 14.8921 14.8617 14.7665 14.9293C14.7244 14.9491 14.6892 14.981 14.6655 15.0211C14.6417 15.0611 14.6305 15.1073 14.6333 15.1537C14.6962 16.133 13.8441 18.6415 13.0362 18.6415C12.8895 18.6415 12.8179 18.4823 12.8179 18.2259C12.8179 17.518 13.2397 16.0232 13.4518 15.3387C13.4789 15.2499 13.4938 15.1734 13.4938 15.1069C13.4938 14.9194 13.3778 14.8232 13.1152 14.8232C12.8266 14.8232 12.5134 14.933 12.2112 15.4645C12.1051 14.9959 11.7882 14.7911 11.3454 14.7911C10.619 14.7911 9.80751 15.5595 9.4511 16.5609C8.97379 17.8978 8.01185 19.1891 6.71689 19.1891C5.54157 19.1891 4.92123 18.211 4.92123 16.6657C4.92123 14.4347 6.55905 12.6119 7.77382 12.6119C8.3547 12.6119 8.63219 12.9819 8.63219 13.5492C8.63219 14.2361 8.24861 14.5556 8.24861 14.817C8.24861 14.8972 8.31524 14.9761 8.44718 14.9761C8.97505 14.9761 9.59659 14.3558 9.59659 13.5098C9.59659 12.6637 8.90968 12.0446 7.6949 12.0446C5.68712 12.0446 3.66699 14.0647 3.66699 16.6534C3.66699 18.713 4.6832 19.9549 6.4406 19.9549C7.63937 19.9549 8.68647 19.0226 9.25127 17.9348C9.31544 18.8363 9.72487 19.3074 10.3489 19.3074C10.9039 19.3074 11.3528 18.9769 11.6956 18.3961C11.8276 19.004 12.1779 19.3013 12.633 19.3013C13.1546 19.3013 13.5912 18.9708 14.0068 18.3566C14.0007 18.8388 14.1104 19.2927 14.5285 19.2927C14.7258 19.2927 14.9614 19.247 15.0034 19.0743C15.4436 17.254 16.5314 15.7679 16.8644 15.7679C16.963 15.7679 16.9901 15.8629 16.9901 15.9751C16.9901 16.4697 16.6411 17.4834 16.6411 18.1309C16.6411 18.8301 16.9384 19.2927 17.5526 19.2927C18.2334 19.2927 18.9252 18.4589 19.3864 17.2405C19.5308 18.3788 19.8428 19.2975 20.3311 19.2975C20.9305 19.2975 21.9948 18.0359 22.6399 16.7002C22.8926 16.7323 23.2725 16.7237 23.6375 16.4659C23.4822 16.8593 23.3909 17.2898 23.3909 17.7202C23.3909 18.9597 23.9829 19.3074 24.4922 19.3074C25.046 19.3074 25.4949 18.9769 25.839 18.3961C25.9524 18.9202 26.2423 19.3 26.7751 19.3C27.6087 19.3 28.3327 18.4478 28.3327 17.7485C28.3327 17.5636 28.2538 17.4513 28.1612 17.4513ZM10.8571 18.6205C10.5203 18.6205 10.3884 18.2813 10.3884 17.7757C10.3884 16.8976 10.989 15.4312 11.6242 15.4312C11.9016 15.4312 12.0065 15.758 12.0065 16.1576C12.0065 17.0493 11.4355 18.6205 10.8571 18.6205ZM22.3895 15.9998C22.1885 15.7605 22.1157 15.4349 22.1157 15.1451C22.1157 14.7875 22.2464 14.4853 22.403 14.4853C22.5597 14.4853 22.6078 14.6395 22.6078 14.854C22.6078 15.2129 22.4795 15.737 22.3895 15.9998ZM25.0003 18.6205C24.6637 18.6205 24.5317 18.2308 24.5317 17.7757C24.5317 16.9284 25.1323 15.4312 25.7724 15.4312C26.0499 15.4312 26.1485 15.7556 26.1485 16.1576C26.1485 17.0493 25.5874 18.6205 25.0003 18.6205Z" fill="white"/>
<defs>
<radialGradient id="paint0_radial_45_121" cx="0" cy="0" r="1" gradientUnits="userSpaceOnUse" gradientTransform="translate(6.17186 28.3623) rotate(-49.416) scale(24.7493)">
<stop stop-color="#6420FF"/>
<stop offset="1" stop-color="#6420FF" stop-opacity="0"/>
</radialGradient>
<radialGradient id="paint1_radial_45_121" cx="0" cy="0" r="1" gradientUnits="userSpaceOnUse" gradientTransform="translate(8.47152 3.63782) rotate(54.703) scale(27.9094)">
<stop stop-color="#00C4CC"/>
<stop offset="1" stop-color="#00C4CC" stop-opacity="0"/>
</radialGradient>
<radialGradient id="paint2_radial_45_121" cx="0" cy="0" r="1" gradientUnits="userSpaceOnUse" gradientTransform="translate(6.18105 28.3621) rotate(-45.1954) scale(24.4497 11.2447)">
<stop stop-color="#6420FF"/>
<stop offset="1" stop-color="#6420FF" stop-opacity="0"/>
</radialGradient>
<radialGradient id="paint3_radial_45_121" cx="0" cy="0" r="1" gradientUnits="userSpaceOnUse" gradientTransform="translate(13.0863 4.31158) rotate(66.5198) scale(25.1934 42.2047)">
<stop stop-color="#00C4CC"/>
<stop offset="1" stop-color="#00C4CC" stop-opacity="0"/>
</radialGradient>
</defs>
</svg>
