<svg width="32" height="32" viewBox="0 0 32 32" fill="none" xmlns="http://www.w3.org/2000/svg">
<path d="M17.8373 0H16.4382V5.41284H17.8373V0Z" fill="url(#paint0_linear_45_111)"/>
<path d="M6.41284 15.2844H1V16.6834H6.41284V15.2844Z" fill="url(#paint1_linear_45_111)"/>
<path d="M5.99439 3.53417L5.00513 4.52344L8.83258 8.3509L9.82185 7.36163L5.99439 3.53417Z" fill="url(#paint2_linear_45_111)"/>
<path d="M14.4055 32L29.0757 29.5517L22.0848 24.8314L7.41455 27.2797L14.4055 32Z" fill="url(#paint3_linear_45_111)"/>
<path d="M9.56066 11.7574L24.2309 9.30914L22.0848 24.8314L7.41455 27.2797L9.56066 11.7574Z" fill="url(#paint4_linear_45_111)"/>
<path d="M24.2309 9.30914L31.2218 14.0295L29.0757 29.5517L22.0848 24.8314L24.2309 9.30914Z" fill="url(#paint5_linear_45_111)"/>
<path d="M24.2308 9.3091L27.2429 6.77686L12.5713 9.22516L9.56061 11.7574L24.2308 9.3091Z" fill="url(#paint6_linear_45_111)"/>
<path d="M27.2429 6.77686L31.2218 14.0294L24.2308 9.3091L27.2429 6.77686Z" fill="url(#paint7_linear_45_111)"/>
<path d="M22.6751 20.5629L22.0847 24.8299L7.41309 27.2796L8.02026 22.8853C8.02026 22.8853 9.80962 23.1063 10.5105 22.9748C11.2114 22.8447 13.5996 21.0358 14.4026 21.1477C15.2057 21.2596 15.7765 22.5663 16.5711 22.4935C17.3658 22.4208 20.9375 20.2775 22.6737 20.5615L22.6751 20.5629Z" fill="url(#paint8_linear_45_111)"/>
<path d="M29.7431 24.725L29.0757 29.5502L22.0848 24.8299L22.6752 20.5629C24.41 20.8483 24.1204 25.9044 28.0796 24.5851C29.3709 24.1542 29.7445 24.725 29.7445 24.725H29.7431Z" fill="url(#paint9_linear_45_111)"/>
<defs>
<linearGradient id="paint0_linear_45_111" x1="16.2242" y1="5.33869" x2="18.0513" y2="0.0741484" gradientUnits="userSpaceOnUse">
<stop stop-color="#6D8E6A"/>
<stop offset="1" stop-color="#86A788"/>
</linearGradient>
<linearGradient id="paint1_linear_45_111" x1="6.33869" y1="16.8974" x2="1.07415" y2="15.0703" gradientUnits="userSpaceOnUse">
<stop stop-color="#6D8E6A"/>
<stop offset="1" stop-color="#86A788"/>
</linearGradient>
<linearGradient id="paint2_linear_45_111" x1="8.6288" y1="8.44982" x2="6.19917" y2="3.43624" gradientUnits="userSpaceOnUse">
<stop stop-color="#6D8E6A"/>
<stop offset="1" stop-color="#86A788"/>
</linearGradient>
<linearGradient id="paint3_linear_45_111" x1="37.4101" y1="18.8794" x2="10.073" y2="32.4794" gradientUnits="userSpaceOnUse">
<stop stop-color="#47663B"/>
<stop offset="1" stop-color="#86A788"/>
</linearGradient>
<linearGradient id="paint4_linear_45_111" x1="39.8634" y1="6.33241" x2="5.5695" y2="23.3928" gradientUnits="userSpaceOnUse">
<stop stop-color="#F2BCBA"/>
<stop offset="1" stop-color="#291D35"/>
</linearGradient>
<linearGradient id="paint5_linear_45_111" x1="40.1979" y1="12.6889" x2="20.8775" y2="22.3014" gradientUnits="userSpaceOnUse">
<stop stop-color="#F2BCBA"/>
<stop offset="1" stop-color="#291D35"/>
</linearGradient>
<linearGradient id="paint6_linear_45_111" x1="37.2197" y1="-0.0962009" x2="10.3756" y2="13.257" gradientUnits="userSpaceOnUse">
<stop stop-color="#F2BCBA"/>
<stop offset="1" stop-color="#291D35"/>
</linearGradient>
<linearGradient id="paint7_linear_45_111" x1="31.8548" y1="9.09515" x2="25.673" y2="12.1712" gradientUnits="userSpaceOnUse">
<stop stop-color="#F2BCBA"/>
<stop offset="1" stop-color="#291D35"/>
</linearGradient>
<linearGradient id="paint8_linear_45_111" x1="6.95652" y1="26.7326" x2="18.3678" y2="22.679" gradientUnits="userSpaceOnUse">
<stop stop-color="#47663B"/>
<stop offset="1" stop-color="#86A788"/>
</linearGradient>
<linearGradient id="paint9_linear_45_111" x1="24.6594" y1="23.622" x2="42.4737" y2="39.9041" gradientUnits="userSpaceOnUse">
<stop stop-color="#6D8E6A"/>
<stop offset="1" stop-color="#86A788"/>
</linearGradient>
</defs>
</svg>
