<svg width="121" height="34" viewBox="0 0 121 34" fill="none" xmlns="http://www.w3.org/2000/svg">
<path d="M18.0592 30.6378C27.4222 30.6378 35.0124 23.7793 35.0124 15.3189C35.0124 6.85851 27.4222 0 18.0592 0C8.69619 0 1.10598 6.85851 1.10598 15.3189C1.10598 23.7793 8.69619 30.6378 18.0592 30.6378Z" fill="#F2BCBA"/>
<path d="M18.0966 7.38102C14.8813 7.38102 12.909 7.89252 12.909 7.89252L9.46351 5.5006C8.32936 4.7135 6.78465 5.56525 6.84476 6.94437L7.02736 11.1441C3.62946 16.1491 3.30056 21.9593 7.72146 26.6354L9.35463 27.68L23.8161 28.1053L28.4741 26.6354C32.895 21.9593 32.5661 16.1491 29.1682 11.1441L29.3508 6.94437C29.4109 5.56525 27.8662 4.7135 26.732 5.5006L23.2865 7.89252C23.2865 7.89252 21.3131 7.38102 18.0989 7.38102" fill="white"/>
<path d="M23.8161 28.4455C23.8161 28.4455 23.8093 28.4455 23.8059 28.4455L9.34442 28.0202C9.28317 28.0179 9.22306 27.9998 9.17089 27.9669L7.53772 26.9224C7.51391 26.9076 7.49236 26.8895 7.47421 26.8691C5.28644 24.5543 4.1523 21.9128 4.10239 19.0185C4.05703 16.3884 4.9496 13.6347 6.68258 11.0466L6.50452 6.95798C6.47162 6.19017 6.86858 5.48246 7.54226 5.11159C8.21594 4.74073 9.02572 4.78269 9.65744 5.22047L12.9782 7.52619C13.5067 7.40597 15.3452 7.04078 18.0978 7.04078C20.8503 7.04078 22.6877 7.40597 23.2173 7.52619L26.5381 5.22047C27.1698 4.78269 27.9807 4.74073 28.6533 5.11159C29.3269 5.48246 29.7239 6.19017 29.691 6.95798L29.5129 11.0454C31.2459 13.6336 32.1385 16.3873 32.0931 19.0174C32.0432 21.9117 30.9091 24.5531 28.7213 26.8679C28.6816 26.9099 28.6317 26.9416 28.5761 26.9587L23.9182 28.4285C23.8853 28.4387 23.8501 28.4444 23.8161 28.4444V28.4455ZM9.45783 27.342L23.7674 27.7639L28.2858 26.3383C30.3136 24.1664 31.3661 21.7008 31.4115 19.0083C31.4546 16.4871 30.5813 13.8343 28.8858 11.3358C28.8449 11.2757 28.8245 11.2031 28.8279 11.1305L29.0105 6.93076C29.0332 6.41473 28.7769 5.9588 28.3244 5.70929C27.873 5.45978 27.349 5.487 26.926 5.78187L23.4804 8.17379C23.3988 8.2305 23.2967 8.24864 23.2014 8.22369C23.1821 8.21915 21.2257 7.72353 18.0989 7.72353C14.9721 7.72353 13.0156 8.21915 12.9964 8.22369C12.9011 8.24864 12.799 8.2305 12.7174 8.17379L9.27183 5.78187C8.84766 5.487 8.32482 5.46091 7.87343 5.70929C7.42091 5.9588 7.16459 6.41473 7.18727 6.93076L7.36987 11.1305C7.37327 11.2031 7.35286 11.2757 7.31203 11.3358C5.61648 13.8343 4.74205 16.4871 4.78628 19.0083C4.83278 21.7155 5.89548 24.1925 7.94375 26.3723L9.46237 27.3431L9.45783 27.342Z" fill="#191E1C"/>
<path d="M10.1338 26.1863L8.49041 26.3871C7.58309 26.4971 6.82321 27.283 6.79146 28.23L6.73248 29.9381C6.72227 30.2273 7.00014 30.4496 7.32224 30.4099L12.2342 29.811C12.5552 29.7713 12.7718 29.4889 12.6936 29.2111L12.2263 27.5666C11.9677 26.6558 11.0411 26.0752 10.1338 26.1852V26.1863Z" fill="white"/>
<path d="M7.24739 30.7547C7.02282 30.7547 6.80847 30.6741 6.64742 30.5256C6.4773 30.369 6.3843 30.1513 6.39224 29.9256L6.45121 28.2176C6.48864 27.1152 7.34832 26.1829 8.44958 26.0491L10.093 25.8483C11.1942 25.7145 12.2524 26.4131 12.5541 27.4736L13.0213 29.1181C13.0826 29.3347 13.0451 29.5695 12.917 29.7623C12.7752 29.9755 12.5416 30.1161 12.2762 30.149L7.3642 30.7478C7.32564 30.7524 7.28708 30.7547 7.24965 30.7547H7.24739ZM10.1746 26.5243L8.53124 26.725C7.7725 26.818 7.15665 27.4838 7.13057 28.2425L7.07159 29.9505C7.07159 29.9778 7.08293 30.0027 7.10675 30.0254C7.14871 30.064 7.21223 30.081 7.28028 30.073L12.1923 29.4742C12.2592 29.4663 12.3182 29.4334 12.3488 29.3869C12.3669 29.3597 12.3726 29.3313 12.3647 29.3052L11.8974 27.6607C11.6898 26.9314 10.9322 26.4336 10.1735 26.5243H10.1746Z" fill="#191E1C"/>
<path d="M11.6207 19.6786L11.0819 19.5016L10.5398 19.3349C10.5557 19.2828 10.9515 18.0556 12.6017 17.7392C14.2848 17.416 15.0821 18.5705 15.115 18.6193C15.2896 18.879 15.2204 19.2317 14.9607 19.4064C14.7033 19.5799 14.3539 19.513 14.1782 19.2578C14.1305 19.1932 13.7222 18.6783 12.816 18.8529C11.8588 19.0366 11.6309 19.6525 11.6207 19.6786Z" fill="#191E1C"/>
<path d="M11.9961 14.0509C11.8622 14.0509 11.7352 13.9715 11.6808 13.8389C11.6104 13.6653 11.6932 13.4669 11.8668 13.3954C11.9586 13.358 12.7831 13.0313 13.4137 13.1572C13.5975 13.1947 13.7177 13.3739 13.6803 13.5576C13.6428 13.7413 13.4648 13.8615 13.2799 13.8241C12.9158 13.7515 12.3216 13.9443 12.1231 14.0249C12.0811 14.0419 12.038 14.0498 11.9949 14.0498L11.9961 14.0509Z" fill="#191E1C"/>
<path d="M0.340434 22.8009C0.203202 22.8009 0.0739093 22.717 0.0217385 22.5809C-0.0440419 22.4051 0.0444215 22.2089 0.220214 22.1419C4.79536 20.4124 7.91653 21.8164 8.04696 21.8777C8.21708 21.9571 8.29193 22.159 8.21254 22.3291C8.13315 22.4992 7.93128 22.5729 7.76115 22.4947C7.74301 22.4867 6.99674 22.1521 5.73784 22.0206C4.56853 21.8981 2.70399 21.9299 0.461787 22.7782C0.422092 22.7929 0.381263 22.7997 0.341568 22.7997L0.340434 22.8009Z" fill="#191E1C"/>
<path d="M3.40943 25.2676C3.28808 25.2676 3.17012 25.2019 3.10888 25.0873C3.02042 24.9217 3.0828 24.7153 3.24952 24.6269C5.78773 23.2727 7.55473 23.5381 7.62845 23.5494C7.81445 23.5789 7.94034 23.7536 7.90972 23.9396C7.88023 24.1244 7.70784 24.2514 7.52071 24.222C7.49462 24.2186 5.88073 23.994 3.56934 25.2279C3.51831 25.2552 3.46387 25.2676 3.40943 25.2676Z" fill="#191E1C"/>
<path d="M18.0966 18.9856H16.6563C16.468 18.9856 16.316 18.8336 16.316 18.6454C16.316 18.4571 16.468 18.3051 16.6563 18.3051H18.0966C18.2849 18.3051 18.4369 18.4571 18.4369 18.6454C18.4369 18.8336 18.2849 18.9856 18.0966 18.9856Z" fill="#191E1C"/>
<path d="M9.35463 18.9856H7.20996C7.02169 18.9856 6.86971 18.8336 6.86971 18.6454C6.86971 18.4571 7.02169 18.3051 7.20996 18.3051H9.35463C9.5429 18.3051 9.69487 18.4571 9.69487 18.6454C9.69487 18.8336 9.5429 18.9856 9.35463 18.9856Z" fill="#191E1C"/>
<path d="M13.0054 22.6364C10.8041 22.6364 9.01438 20.8456 9.01438 18.6454C9.01438 16.4451 10.8052 14.6543 13.0054 14.6543C15.2057 14.6543 16.9965 16.4451 16.9965 18.6454C16.9965 20.8456 15.2057 22.6364 13.0054 22.6364ZM13.0054 15.3348C11.1795 15.3348 9.69487 16.8205 9.69487 18.6454C9.69487 20.4702 11.1806 21.9559 13.0054 21.9559C14.8303 21.9559 16.316 20.4702 16.316 18.6454C16.316 16.8205 14.8303 15.3348 13.0054 15.3348Z" fill="#191E1C"/>
<path d="M16.8321 25.1055C16.8082 25.1055 16.7833 25.1055 16.7583 25.1043C15.5176 25.051 15.022 23.9112 14.9335 23.3169C14.9063 23.1309 15.0344 22.9585 15.2204 22.9302C15.4064 22.903 15.58 23.0311 15.6072 23.2171C15.614 23.2636 15.8011 24.383 16.7878 24.425C17.0033 24.4329 17.1814 24.3739 17.3231 24.2412C17.6623 23.9237 17.7519 23.2602 17.7575 23.0311C17.7621 22.844 17.9174 22.6988 18.1057 22.6988C18.2928 22.7033 18.4426 22.8576 18.438 23.0459C18.438 23.0912 18.4085 24.1562 17.7904 24.7357C17.5284 24.9818 17.2063 25.1066 16.8321 25.1066V25.1055Z" fill="#191E1C"/>
<path d="M8.29079 30.9769C8.12067 30.9769 7.97437 30.8499 7.95395 30.6775L7.91312 30.3373C7.89044 30.1513 8.02314 29.9812 8.21027 29.9585C8.3974 29.9358 8.56639 30.0685 8.58908 30.2556L8.6299 30.5959C8.65259 30.7819 8.51989 30.952 8.33276 30.9747C8.31915 30.9758 8.30554 30.9769 8.29193 30.9769H8.29079Z" fill="#191E1C"/>
<path d="M9.8684 30.7853C9.69828 30.7853 9.55197 30.6582 9.53156 30.4859L9.49073 30.1456C9.46805 29.9585 9.60074 29.7895 9.78788 29.7668C9.97614 29.7441 10.144 29.8768 10.1667 30.064L10.2075 30.4042C10.2302 30.5913 10.0975 30.7603 9.91036 30.783C9.89675 30.7841 9.88201 30.7853 9.8684 30.7853Z" fill="#191E1C"/>
<path d="M26.0606 26.1863L27.704 26.387C28.6113 26.4971 29.3712 27.283 29.4029 28.23L29.4619 29.9381C29.4721 30.2273 29.1942 30.4496 28.8721 30.4099L23.9602 29.811C23.6392 29.7713 23.4226 29.4889 23.5008 29.2111L23.9681 27.5666C24.2267 26.6558 25.1533 26.0752 26.0606 26.1852V26.1863Z" fill="white"/>
<path d="M28.947 30.7546C28.9084 30.7546 28.871 30.7524 28.8325 30.7478L23.9193 30.149C23.6539 30.1173 23.4203 29.9755 23.2785 29.7623C23.1504 29.5695 23.113 29.3347 23.1742 29.1181L23.6415 27.4736C23.9431 26.412 25.0002 25.7134 26.1026 25.8483L27.7459 26.0491C28.8472 26.1829 29.7069 27.1152 29.7443 28.2176L29.8033 29.9256C29.8112 30.1513 29.7182 30.3702 29.5481 30.5255C29.3871 30.6741 29.1727 30.7546 28.9481 30.7546H28.947ZM25.8372 26.5129C25.1419 26.5129 24.4864 26.9893 24.2959 27.6607L23.8286 29.3052C23.8207 29.3313 23.8263 29.3596 23.8445 29.3869C23.8751 29.4334 23.9341 29.4663 24.001 29.4742L28.9141 30.073C28.981 30.081 29.0457 30.0628 29.0865 30.0254C29.1115 30.0027 29.1228 29.9778 29.1217 29.9505L29.0627 28.2425C29.0366 27.4849 28.4219 26.818 27.662 26.725L26.0186 26.5243C25.9574 26.5175 25.8973 26.5129 25.836 26.5129H25.8372Z" fill="#191E1C"/>
<path d="M24.5703 19.6684C24.5647 19.6525 24.3367 19.0366 23.3784 18.8529C22.4665 18.6783 22.0582 19.1988 22.0151 19.2589C21.8405 19.5187 21.4911 19.5844 21.2303 19.4098C20.9706 19.2351 20.9036 18.879 21.0783 18.6193C21.1112 18.5694 21.9074 17.416 23.5916 17.7392C25.2418 18.0556 25.6376 19.2828 25.6535 19.3349L24.5692 19.6684H24.5703Z" fill="#191E1C"/>
<path d="M24.1983 14.0509C24.1552 14.0509 24.1121 14.043 24.0702 14.026C23.8717 13.9455 23.2774 13.7527 22.9133 13.8252C22.7285 13.8627 22.5493 13.7425 22.513 13.5587C22.4767 13.375 22.5958 13.1947 22.7795 13.1584C23.4101 13.0325 24.2346 13.3591 24.3265 13.3965C24.5 13.468 24.5839 13.6665 24.5125 13.84C24.4592 13.9715 24.331 14.0521 24.1972 14.0521L24.1983 14.0509Z" fill="#191E1C"/>
<path d="M35.854 22.8009C35.8143 22.8009 35.7734 22.7941 35.7338 22.7793C33.4904 21.931 31.6259 21.8992 30.4577 22.0217C29.1897 22.1544 28.4412 22.4924 28.4344 22.4958C28.2643 22.5741 28.0613 22.5003 27.983 22.3291C27.9047 22.159 27.9785 21.9571 28.1486 21.8777C28.279 21.8164 31.4002 20.4124 35.9753 22.1419C36.1511 22.2089 36.2396 22.4051 36.1738 22.5809C36.1228 22.717 35.9923 22.8009 35.8551 22.8009H35.854Z" fill="#191E1C"/>
<path d="M32.785 25.2676C32.7305 25.2676 32.6761 25.2552 32.6251 25.2279C30.3057 23.9906 28.6884 24.2197 28.6726 24.222C28.4866 24.2503 28.313 24.1233 28.2847 23.9384C28.2552 23.7536 28.3811 23.58 28.5659 23.5494C28.6397 23.5381 30.4078 23.2727 32.946 24.6269C33.1116 24.7153 33.174 24.9217 33.0867 25.0873C33.0254 25.2019 32.9075 25.2676 32.7861 25.2676H32.785Z" fill="#191E1C"/>
<path d="M25.3801 26.2861L24.2607 33.1012C24.2244 33.3178 24.0384 33.4766 23.8195 33.4766H12.3749C12.156 33.4766 11.97 33.3178 11.9337 33.1012L10.8143 26.2861C10.7825 26.091 10.9334 25.913 11.1307 25.913H25.0637C25.261 25.913 25.4119 26.091 25.3801 26.2861Z" fill="#E79998"/>
<path d="M23.8195 33.8168H12.3749C11.9892 33.8168 11.6626 33.539 11.598 33.1579L10.4786 26.3417C10.4468 26.1489 10.5012 25.9538 10.6271 25.8064C10.753 25.6589 10.9368 25.5739 11.1307 25.5739H25.0637C25.2576 25.5739 25.4414 25.6589 25.5672 25.8064C25.6931 25.9549 25.7476 26.15 25.717 26.3417L24.5976 33.1568C24.5329 33.5401 24.2063 33.8168 23.8207 33.8168H23.8195ZM11.1534 26.2532L12.2694 33.0456C12.2785 33.0978 12.3227 33.1364 12.3749 33.1364H23.8195C23.8717 33.1364 23.9159 33.0978 23.925 33.0445L25.041 26.2532H11.1534Z" fill="#191E1C"/>
<path d="M19.5381 18.9856H18.0978C17.9095 18.9856 17.7575 18.8336 17.7575 18.6454C17.7575 18.4571 17.9095 18.3051 18.0978 18.3051H19.5381C19.7264 18.3051 19.8784 18.4571 19.8784 18.6454C19.8784 18.8336 19.7264 18.9856 19.5381 18.9856Z" fill="#191E1C"/>
<path d="M28.9856 18.9856H26.8409C26.6526 18.9856 26.5006 18.8336 26.5006 18.6454C26.5006 18.4571 26.6526 18.3051 26.8409 18.3051H28.9856C29.1738 18.3051 29.3258 18.4571 29.3258 18.6454C29.3258 18.8336 29.1738 18.9856 28.9856 18.9856Z" fill="#191E1C"/>
<path d="M23.1889 22.6364C20.9876 22.6364 19.1979 20.8456 19.1979 18.6454C19.1979 16.4451 20.9887 14.6543 23.1889 14.6543C25.3892 14.6543 27.18 16.4451 27.18 18.6454C27.18 20.8456 25.3892 22.6364 23.1889 22.6364ZM23.1889 15.3348C21.363 15.3348 19.8784 16.8205 19.8784 18.6454C19.8784 20.4702 21.3641 21.9559 23.1889 21.9559C25.0138 21.9559 26.4995 20.4702 26.4995 18.6454C26.4995 16.8205 25.0138 15.3348 23.1889 15.3348Z" fill="#191E1C"/>
<path d="M19.3623 25.1055C18.9881 25.1055 18.666 24.9807 18.404 24.7346C17.7859 24.1551 17.7575 23.0901 17.7564 23.0447C17.753 22.8565 17.9016 22.7011 18.0898 22.6977C18.2747 22.6886 18.4335 22.8428 18.4369 23.03C18.4425 23.2591 18.5321 23.9226 18.8713 24.2401C19.0142 24.3728 19.1888 24.4318 19.4066 24.4238C20.3933 24.3819 20.5793 23.2625 20.5872 23.2148C20.6156 23.03 20.7902 22.9018 20.9751 22.9302C21.16 22.9585 21.2881 23.1309 21.2609 23.3158C21.1724 23.9112 20.678 25.051 19.4372 25.1032C19.4122 25.1032 19.3884 25.1043 19.3635 25.1043L19.3623 25.1055Z" fill="#191E1C"/>
<path d="M18.8463 22.2576L18.0978 23.0379L17.3481 22.2576C17.1939 22.0977 17.3073 21.83 17.5307 21.83H18.6648C18.8883 21.83 19.0017 22.0977 18.8474 22.2576H18.8463Z" fill="#191E1C"/>
<path d="M18.0978 23.377C18.0048 23.377 17.9163 23.3396 17.8528 23.2727L17.1031 22.4924C16.9387 22.32 16.8922 22.0682 16.9852 21.8493C17.0782 21.6304 17.2925 21.4887 17.5307 21.4887H18.6648C18.903 21.4887 19.1174 21.6304 19.2104 21.8493C19.3034 22.0682 19.258 22.3211 19.0924 22.4924L18.3439 23.2727C18.2792 23.3396 18.1908 23.377 18.0989 23.377H18.0978ZM17.7348 22.1692L18.0966 22.5457L18.4584 22.1692H17.7348Z" fill="#191E1C"/>
<path d="M27.9036 30.9769C27.89 30.9769 27.8764 30.9769 27.8628 30.9747C27.6756 30.952 27.543 30.783 27.5656 30.5959L27.6065 30.2556C27.6291 30.0696 27.7981 29.9358 27.9853 29.9585C28.1724 29.9812 28.3051 30.1501 28.2824 30.3373L28.2416 30.6775C28.2212 30.8499 28.0737 30.9769 27.9047 30.9769H27.9036Z" fill="#191E1C"/>
<path d="M26.326 30.7853C26.3124 30.7853 26.2988 30.7853 26.284 30.783C26.098 30.7603 25.9642 30.5913 25.9869 30.4042L26.0277 30.064C26.0504 29.878 26.2182 29.7441 26.4065 29.7668C26.5925 29.7895 26.7263 29.9585 26.7037 30.1456L26.6628 30.4859C26.6424 30.6582 26.495 30.7853 26.326 30.7853Z" fill="#191E1C"/>
<path d="M18.0978 31.2843C16.8752 31.2843 16.1924 30.0844 16.84 29.2905C17.4865 28.4966 18.0978 29.2009 18.0978 29.2009C18.0978 29.2009 18.7079 28.4966 19.3544 29.2905C20.002 30.0844 19.3192 31.2843 18.0978 31.2843Z" fill="white"/>
<path d="M18.0978 31.6245C17.3447 31.6245 16.6937 31.2378 16.3977 30.6152C16.1493 30.0923 16.2162 29.5162 16.5757 29.075C16.8434 28.7472 17.1485 28.5771 17.4819 28.5726C17.7326 28.5646 17.9447 28.661 18.0966 28.7597C18.2475 28.661 18.4607 28.5646 18.7102 28.5726C19.0448 28.5771 19.3499 28.7472 19.6175 29.075C19.9771 29.5162 20.044 30.0923 19.7956 30.6152C19.5007 31.2378 18.8497 31.6234 18.0966 31.6234L18.0978 31.6245ZM17.4978 29.253C17.4978 29.253 17.4933 29.253 17.4899 29.253C17.3674 29.2564 17.237 29.3415 17.1031 29.5048C16.9103 29.7407 16.8774 30.039 17.0124 30.3237C17.1542 30.6231 17.5148 30.9441 18.0978 30.9441C18.6807 30.9441 19.0391 30.6242 19.182 30.3237C19.317 30.0401 19.2841 29.7419 19.0913 29.5048C18.9575 29.3404 18.827 29.2553 18.7045 29.2519C18.5197 29.2428 18.3552 29.4232 18.353 29.4254C18.2872 29.498 18.1919 29.5343 18.0955 29.5389C17.998 29.5389 17.905 29.4969 17.8403 29.4232C17.7984 29.3767 17.6521 29.2519 17.4978 29.2519V29.253Z" fill="#191E1C"/>
<path d="M18.0966 29.5411C17.9413 29.5411 17.8018 29.4345 17.7655 29.2769C17.5364 28.2663 18.0524 27.8569 18.3938 27.7752C18.5752 27.7321 18.7601 27.8433 18.8043 28.0259C18.8486 28.2085 18.7363 28.3922 18.5537 28.4365C18.3371 28.4886 18.4063 29.0239 18.4301 29.1272C18.4709 29.3097 18.3552 29.4923 18.1726 29.5332C18.1477 29.5388 18.1227 29.5411 18.0978 29.5411H18.0966Z" fill="#191E1C"/>
<path d="M49.3594 10.1756V11.0613L48.3602 11.287L48.7628 8.90305H49.745L49.6803 11.2394C48.6653 11.7872 47.5538 12.0129 46.4265 12.0129C43.1726 12.0129 40.9814 9.66066 40.9814 6.37391C40.9814 3.08715 43.269 0.734932 46.4106 0.734932C47.2805 0.734932 48.4248 0.880103 49.5204 1.50842L49.5851 3.84476H48.6018L48.1991 1.46079L49.1983 1.68648V2.66979C48.2797 1.81577 47.378 1.54244 46.6045 1.54244C44.4292 1.54244 42.6736 3.23459 42.6736 6.37504C42.6736 9.51549 44.2523 11.2076 46.4922 11.2076C47.4109 11.2076 48.4418 10.9332 49.3594 10.1767V10.1756Z" fill="#191E1C"/>
<path d="M57.7849 7.00222C57.7849 7.37309 57.7362 7.69518 57.6727 7.90387H51.7286V7.22678H55.5632C56.3366 7.22678 56.5136 6.85591 56.5136 6.40566C56.5136 5.487 55.7401 4.65 54.725 4.65C53.71 4.65 52.5021 5.51989 52.5021 7.82334C52.5021 9.86934 53.533 10.9649 55.1447 10.9649C56.1756 10.9649 56.8198 10.4977 57.4005 9.82171L57.7713 10.112C57.1918 11.2553 56.1597 11.9811 54.6944 11.9811C52.5361 11.9811 51.1343 10.4829 51.1343 8.03429C51.1343 5.58567 52.8094 3.92641 54.8078 3.92641C56.4671 3.92641 57.7883 5.05376 57.7883 7.00335L57.7849 7.00222Z" fill="#191E1C"/>
<path d="M60.491 8.38701V7.6294C60.491 6.74364 60.4751 6.24348 60.4422 5.59928L59.1539 5.45411V4.89044L61.345 3.92415L61.5866 4.0852L61.7805 6.09831V8.38588C61.7805 9.38506 61.7964 11.0443 61.8293 11.769H60.4434C60.4751 11.0443 60.4921 9.38506 60.4921 8.38588L60.491 8.38701ZM59.2831 11.2065L61.0547 10.8844H61.3768L63.1483 11.2065V11.7702H59.282V11.2065H59.2831ZM61.1352 6.21172H62.0539L61.6512 6.32514C62.1673 4.82693 63.1495 3.92415 64.0999 3.92415C64.5671 3.92415 65.0503 4.14984 65.2431 4.47194C65.2431 5.22955 64.9527 5.64805 64.3086 5.64805C63.9377 5.64805 63.6315 5.50288 63.3423 5.26131L62.9067 4.89044L63.6961 4.72939C62.6969 5.2443 62.1174 6.05067 61.7465 7.2903H61.1341V6.21059L61.1352 6.21172Z" fill="#191E1C"/>
<path d="M67.1451 11.7702C67.1768 11.0455 67.1938 9.3862 67.1938 8.38701V7.6294C67.1938 6.74364 67.1779 6.24348 67.1451 5.59928L65.8238 5.45411V4.89044L68.2565 3.92415L68.4981 4.0852L68.4493 6.26049V8.38701C68.4493 9.3862 68.4652 11.0455 68.4981 11.7702H67.1451ZM69.6254 11.2065V11.7702H65.9202V11.2065L67.6917 10.8844H68.0138L69.6243 11.2065H69.6254ZM66.7413 1.08878C66.7413 0.476345 67.2086 0.0737228 67.8051 0.0737228C68.4017 0.0737228 68.869 0.476345 68.869 1.08878C68.869 1.70122 68.4017 2.10384 67.8051 2.10384C67.2086 2.10384 66.7413 1.68534 66.7413 1.08878Z" fill="#191E1C"/>
<path d="M41.7073 17.0837V16.4395H46.2178V17.0837L44.123 17.3252H43.8009L41.7061 17.0837H41.7073ZM44.1241 26.3474L46.2189 26.5889V27.2331H41.7084V26.5889L43.8032 26.3474H44.1253H44.1241ZM43.2384 21.4342C43.2384 19.775 43.2384 18.0999 43.1896 16.4406H44.7366C44.6878 18.0681 44.6878 19.7432 44.6878 21.4342V21.9174C44.6878 23.8987 44.6878 25.5739 44.7366 27.2343H43.1896C43.2384 25.6068 43.2384 23.9316 43.2384 22.2406V21.4354V21.4342ZM43.9631 22.0784V21.3378H50.7294V22.0784H43.9631ZM48.4736 17.0837V16.4395H52.9841V17.0837L50.8893 17.3252H50.5672L48.4725 17.0837H48.4736ZM50.8905 26.3474L52.9852 26.5889V27.2331H48.4747V26.5889L50.5695 26.3474H50.8916H50.8905ZM50.0047 21.4342C50.0047 19.775 50.0047 18.0999 49.9559 16.4406H51.5029C51.4541 18.0681 51.4541 19.7432 51.4541 21.4342V22.2395C51.4541 23.8987 51.4541 25.5739 51.5029 27.2331H49.9559C50.0047 25.6056 50.0047 23.9305 50.0047 21.9163V21.4331V21.4342Z" fill="#191E1C"/>
<path d="M56.7699 23.013C57.447 22.7714 58.462 22.4811 59.2673 22.3359V22.9154C58.5425 23.0606 57.5921 23.3668 57.109 23.5596C55.6595 24.1233 55.4974 24.7357 55.4974 25.203C55.4974 26.057 56.061 26.395 56.8028 26.395C57.3664 26.395 57.6885 26.1852 58.7036 25.4605L59.0257 25.2189L59.2514 25.5569L58.7841 26.0241C57.8178 26.9904 57.27 27.4418 56.2867 27.4418C55.1106 27.4418 54.1284 26.7647 54.1284 25.4276C54.1284 24.5259 54.6116 23.8001 56.7699 23.0107V23.013ZM58.6231 25.7508V22.0773C58.6231 20.4986 58.1717 20.1118 57.109 20.1118C56.7381 20.1118 56.255 20.1606 55.6595 20.4022L56.3037 19.9031L55.8852 21.2891C55.7401 21.7563 55.4985 22.0138 55.0641 22.0138C54.6297 22.0138 54.3712 21.7722 54.3394 21.3696C54.6456 20.1458 55.8376 19.3882 57.4481 19.3882C59.0586 19.3882 59.9126 20.1458 59.9126 22.1748V25.5897C59.9126 26.3145 60.1383 26.5719 60.508 26.5719C60.7825 26.5719 60.9594 26.4267 61.1363 26.2181L61.4584 26.5719C61.0717 27.1844 60.6373 27.3942 60.0895 27.3942C59.2038 27.3942 58.6231 26.75 58.6231 25.7508Z" fill="#191E1C"/>
<path d="M63.3434 27.2331C63.3752 26.5084 63.3922 24.8492 63.3922 23.85V23.0924C63.3922 22.2066 63.3763 21.7064 63.3434 21.0622L62.055 20.9171V20.3534L64.2462 19.3871L64.4878 19.5482L64.6817 21.4172V23.85C64.6817 24.8492 64.6976 26.5084 64.7305 27.2331H63.3445H63.3434ZM65.8567 26.6695V27.2331H62.1514V26.6695L63.923 26.3474H64.2451L65.8567 26.6695ZM69.5778 22.3676V23.85C69.5778 24.8809 69.5937 26.5084 69.6266 27.2331H68.2407C68.2724 26.5084 68.2894 24.8809 68.2894 23.85V22.4969C68.2894 20.9987 67.9027 20.5156 66.9364 20.5156C66.1311 20.5156 65.4699 20.8377 64.5524 21.627H64.2144V20.9023H65.0356L64.3426 21.1927C65.1002 20.1776 66.3886 19.3882 67.5318 19.3882C68.9177 19.3882 69.5778 20.2423 69.5778 22.3688V22.3676ZM69.1423 26.3474L70.7539 26.6695V27.2331H67.0487V26.6695L68.8202 26.3474H69.1423Z" fill="#191E1C"/>
<path d="M75.6183 26.5572C76.4394 26.5572 77.0042 26.2033 77.7448 25.2518L77.89 25.6862C77.2775 26.7817 76.521 27.4418 75.2644 27.4418C73.2989 27.4418 71.9777 25.8143 71.9777 23.4791C71.9777 21.1439 73.4271 19.3871 75.4085 19.3871C76.3271 19.3871 77.1165 19.758 77.9535 21.0146L77.7924 21.4331C76.8579 20.5315 76.2137 20.2729 75.6013 20.2729C74.3934 20.2729 73.3454 21.2392 73.3454 23.4462C73.3454 25.6533 74.3117 26.5549 75.6171 26.5549L75.6183 26.5572ZM80.097 26.6695V27.2331L77.6325 27.3942L77.4715 25.7508V21.0305L77.5202 20.8207V16.7604L76.1343 16.5994V16.0357L78.5988 15.311L78.8245 15.4403L78.7599 17.7278V27.2331L78.5024 26.412L80.097 26.6695Z" fill="#191E1C"/>
<path d="M80.1775 30.1978C80.2898 29.7464 80.7571 29.5207 81.2414 29.5207C81.6599 29.5207 81.982 29.6818 82.4175 30.1173L82.9165 30.6163L82.2882 30.9701L81.8538 30.6163C82.9335 30.0844 83.5777 28.9729 83.9803 27.8456L84.4794 26.4438L86.9609 19.5969H87.8308L84.9636 27.1367C83.868 30.0367 82.9664 31.2605 81.6451 31.2605C80.8558 31.2605 80.1787 30.8261 80.1787 30.1967L80.1775 30.1978ZM81.8209 20.4022L80.2422 20.1606V19.5969H84.0767V20.1765L82.143 20.4022H81.8209ZM84.2208 28.0713L80.8535 19.5969H82.3517L84.8808 26.4596L84.2208 28.0713ZM86.9597 20.4022L85.2517 20.1606V19.5969H88.4092V20.1606L87.2818 20.4022H86.9597Z" fill="#191E1C"/>
<path d="M90.1172 23.2863C90.1172 25.3164 91.1969 26.4279 92.711 26.4279C93.6455 26.4279 94.4666 25.9765 94.9668 25.1713L95.3535 25.3641C94.9192 26.7012 93.8871 27.4418 92.373 27.4418C90.166 27.4418 88.78 25.8948 88.78 23.4303C88.78 20.9658 90.5516 19.3871 92.4694 19.3871C93.903 19.3871 95.095 20.2729 95.3048 21.4649C95.2243 21.8675 94.9827 22.0614 94.5801 22.0614C94.0481 22.0614 93.8395 21.7393 93.726 21.3367L93.3234 19.919L94.064 20.5156C93.5162 20.2252 92.9684 20.113 92.517 20.113C91.1152 20.113 90.1161 21.2244 90.1161 23.2863H90.1172Z" fill="#191E1C"/>
<path d="M97.8181 23.85V23.0924C97.8181 22.2066 97.8022 21.7064 97.7693 21.0622L96.4809 20.9171V20.3534L98.6721 19.3871L98.9136 19.5482L99.1076 21.5613V23.8488C99.1076 24.848 99.1235 26.5073 99.1564 27.232H97.7704C97.8022 26.5073 97.8192 24.848 97.8192 23.8488L97.8181 23.85ZM96.6091 26.6695L98.3806 26.3474H98.7027L100.474 26.6695V27.2331H96.6079V26.6695H96.6091ZM98.4622 21.6758H99.3809L98.9783 21.7881C99.4943 20.2899 100.476 19.3871 101.427 19.3871C101.894 19.3871 102.377 19.6128 102.57 19.9349C102.57 20.6925 102.28 21.111 101.636 21.111C101.265 21.111 100.959 20.9658 100.669 20.7243L100.234 20.3534L101.023 20.1924C100.024 20.7073 99.4444 21.5136 99.0736 22.7533H98.4611V21.6735L98.4622 21.6758Z" fill="#191E1C"/>
<path d="M105.905 23.013C106.582 22.7714 107.597 22.4811 108.402 22.3359V22.9154C107.677 23.0606 106.727 23.3668 106.244 23.5596C104.794 24.1233 104.632 24.7357 104.632 25.203C104.632 26.057 105.196 26.395 105.937 26.395C106.501 26.395 106.823 26.1852 107.838 25.4605L108.16 25.2189L108.386 25.5569L107.919 26.0241C106.952 26.9904 106.405 27.4418 105.421 27.4418C104.245 27.4418 103.263 26.7647 103.263 25.4276C103.263 24.5259 103.746 23.8001 105.905 23.0107V23.013ZM107.758 25.7508V22.0773C107.758 20.4986 107.306 20.1118 106.244 20.1118C105.873 20.1118 105.39 20.1606 104.794 20.4022L105.438 19.9031L105.02 21.2891C104.875 21.7563 104.633 22.0138 104.199 22.0138C103.764 22.0138 103.506 21.7722 103.474 21.3696C103.78 20.1458 104.972 19.3882 106.583 19.3882C108.193 19.3882 109.047 20.1458 109.047 22.1748V25.5897C109.047 26.3145 109.273 26.5719 109.643 26.5719C109.917 26.5719 110.094 26.4267 110.271 26.2181L110.593 26.5719C110.206 27.1844 109.772 27.3942 109.224 27.3942C108.338 27.3942 107.758 26.75 107.758 25.7508Z" fill="#191E1C"/>
<path d="M112.622 20.4351H111.269V19.7421L113.089 19.5005L112.622 19.7421C112.783 17.89 113.041 16.9067 113.765 16.1332C114.458 15.3756 115.279 15.1499 116.004 15.1499C116.729 15.1499 117.373 15.3915 117.534 16.0039C117.502 16.4066 117.147 16.7128 116.568 16.7128C116.165 16.7128 115.81 16.5517 115.425 16.2614L114.635 15.6648L115.988 15.3427L116.359 15.8259C116.182 15.7295 115.925 15.6331 115.731 15.6331C115.248 15.6331 114.7 15.9869 114.394 16.5347C114.023 17.1789 113.781 18.2586 113.91 20.2241V23.8488C113.91 24.9762 113.926 26.1047 113.959 27.232H112.573C112.605 26.1047 112.622 24.9762 112.622 23.8488V20.4339V20.4351ZM115.41 26.6695V27.2331H111.286V26.6695L113.106 26.3474H113.428L115.41 26.6695ZM116.134 19.5969V20.4351H113.267V19.5969H116.134ZM117.342 24.2696V20.4351H115.506V19.5969H117.988L117.343 20.0154L117.827 17.4057H118.761L118.632 20.2252V25.4446C118.632 26.2827 118.986 26.6366 119.534 26.6366C119.887 26.6366 120.211 26.4914 120.629 26.1852L121 26.6196C120.597 27.1345 119.936 27.4407 119.131 27.4407C118.019 27.4407 117.326 26.8611 117.326 25.6204C117.326 25.2336 117.342 24.8957 117.342 24.2673V24.2696ZM117.987 19.5969H120.854V20.4351H117.987V19.5969Z" fill="#191E1C"/>
</svg>
